<svg id="visual" viewBox="0 0 300 300" width="300" height="300" xmlns="http://www.w3.org/2000/svg" xmlns:xlink="http://www.w3.org/1999/xlink" version="1.1"><rect x="0" y="0" width="300" height="300" fill="#b38eff"></rect><g transform="translate(176.59351030019485 190.3842139036385)"><path d="M59.5 -123C65 -89.1 48.9 -52 61.7 -27.2C74.6 -2.4 116.5 10.2 138.4 36.4C160.2 62.5 162.1 102.3 135.7 98.5C109.3 94.7 54.7 47.4 22.1 41.6C-10.5 35.8 -21 71.6 -21.4 72C-21.8 72.3 -12 37.1 -50.1 25.4C-88.1 13.8 -174 25.6 -199.5 13.4C-225.1 1.2 -190.3 -34.9 -154.3 -52.5C-118.3 -70.1 -81 -69.1 -55.1 -93.6C-29.2 -118.1 -14.6 -168 6.2 -177.7C27 -187.4 54.1 -156.8 59.5 -123" fill="#9A4BFF"></path></g></svg>