<svg id="visual" viewBox="0 0 960 300" width="960" height="300" xmlns="http://www.w3.org/2000/svg" xmlns:xlink="http://www.w3.org/1999/xlink" version="1.1"><rect x="0" y="0" width="960" height="300" fill="#ffffff"></rect><path d="M0 170L20 171.8C40 173.7 80 177.3 120 171.3C160 165.3 200 149.7 240 145.7C280 141.7 320 149.3 360 157.5C400 165.7 440 174.3 480 174C520 173.7 560 164.3 600 158.5C640 152.7 680 150.3 720 146.2C760 142 800 136 840 139C880 142 920 154 940 160L960 166L960 301L940 301C920 301 880 301 840 301C800 301 760 301 720 301C680 301 640 301 600 301C560 301 520 301 480 301C440 301 400 301 360 301C320 301 280 301 240 301C200 301 160 301 120 301C80 301 40 301 20 301L0 301Z" fill="#b38eff"></path><path d="M0 223L20 218.3C40 213.7 80 204.3 120 200.3C160 196.3 200 197.7 240 196.7C280 195.7 320 192.3 360 193C400 193.7 440 198.3 480 195.3C520 192.3 560 181.7 600 180.3C640 179 680 187 720 191.3C760 195.7 800 196.3 840 201.3C880 206.3 920 215.7 940 220.3L960 225L960 301L940 301C920 301 880 301 840 301C800 301 760 301 720 301C680 301 640 301 600 301C560 301 520 301 480 301C440 301 400 301 360 301C320 301 280 301 240 301C200 301 160 301 120 301C80 301 40 301 20 301L0 301Z" fill="#a276ff"></path><path d="M0 269L20 265.7C40 262.3 80 255.7 120 253.8C160 252 200 255 240 253.5C280 252 320 246 360 242.3C400 238.7 440 237.3 480 238.2C520 239 560 242 600 240.5C640 239 680 233 720 229.2C760 225.3 800 223.7 840 227C880 230.3 920 238.7 940 242.8L960 247L960 301L940 301C920 301 880 301 840 301C800 301 760 301 720 301C680 301 640 301 600 301C560 301 520 301 480 301C440 301 400 301 360 301C320 301 280 301 240 301C200 301 160 301 120 301C80 301 40 301 20 301L0 301Z" fill="#905eff"></path></svg>