<svg id="visual" viewBox="0 0 960 200" width="960" height="200" xmlns="http://www.w3.org/2000/svg" xmlns:xlink="http://www.w3.org/1999/xlink" version="1.1"><rect x="0" y="0" width="960" height="200" fill="#ffffff"></rect><path d="M0 89L14.5 84.8C29 80.7 58 72.3 87.2 69.8C116.3 67.3 145.7 70.7 174.8 75C204 79.3 233 84.7 262 83.5C291 82.3 320 74.7 349 71.8C378 69 407 71 436.2 70.7C465.3 70.3 494.7 67.7 523.8 71.2C553 74.7 582 84.3 611 84.5C640 84.7 669 75.3 698 72C727 68.7 756 71.3 785.2 75C814.3 78.7 843.7 83.3 872.8 83.3C902 83.3 931 78.7 945.5 76.3L960 74L960 0L945.5 0C931 0 902 0 872.8 0C843.7 0 814.3 0 785.2 0C756 0 727 0 698 0C669 0 640 0 611 0C582 0 553 0 523.8 0C494.7 0 465.3 0 436.2 0C407 0 378 0 349 0C320 0 291 0 262 0C233 0 204 0 174.8 0C145.7 0 116.3 0 87.2 0C58 0 29 0 14.5 0L0 0Z" fill="#b38eff"></path><path d="M0 74L14.5 72.7C29 71.3 58 68.7 87.2 66.5C116.3 64.3 145.7 62.7 174.8 63.7C204 64.7 233 68.3 262 66.7C291 65 320 58 349 56.7C378 55.3 407 59.7 436.2 62.2C465.3 64.7 494.7 65.3 523.8 65C553 64.7 582 63.3 611 61.3C640 59.3 669 56.7 698 57.3C727 58 756 62 785.2 63.8C814.3 65.7 843.7 65.3 872.8 63.3C902 61.3 931 57.7 945.5 55.8L960 54L960 0L945.5 0C931 0 902 0 872.8 0C843.7 0 814.3 0 785.2 0C756 0 727 0 698 0C669 0 640 0 611 0C582 0 553 0 523.8 0C494.7 0 465.3 0 436.2 0C407 0 378 0 349 0C320 0 291 0 262 0C233 0 204 0 174.8 0C145.7 0 116.3 0 87.2 0C58 0 29 0 14.5 0L0 0Z" fill="#ab82ff"></path><path d="M0 45L14.5 43.7C29 42.3 58 39.7 87.2 40C116.3 40.3 145.7 43.7 174.8 46.3C204 49 233 51 262 53.3C291 55.7 320 58.3 349 58.5C378 58.7 407 56.3 436.2 54.8C465.3 53.3 494.7 52.7 523.8 51.7C553 50.7 582 49.3 611 50.3C640 51.3 669 54.7 698 55.7C727 56.7 756 55.3 785.2 55.7C814.3 56 843.7 58 872.8 56.7C902 55.3 931 50.7 945.5 48.3L960 46L960 0L945.5 0C931 0 902 0 872.8 0C843.7 0 814.3 0 785.2 0C756 0 727 0 698 0C669 0 640 0 611 0C582 0 553 0 523.8 0C494.7 0 465.3 0 436.2 0C407 0 378 0 349 0C320 0 291 0 262 0C233 0 204 0 174.8 0C145.7 0 116.3 0 87.2 0C58 0 29 0 14.5 0L0 0Z" fill="#a276ff"></path><path d="M0 33L14.5 34.3C29 35.7 58 38.3 87.2 38.3C116.3 38.3 145.7 35.7 174.8 33.8C204 32 233 31 262 31.7C291 32.3 320 34.7 349 35.5C378 36.3 407 35.7 436.2 33.8C465.3 32 494.7 29 523.8 28C553 27 582 28 611 27.7C640 27.3 669 25.7 698 25.8C727 26 756 28 785.2 27.3C814.3 26.7 843.7 23.3 872.8 24.7C902 26 931 32 945.5 35L960 38L960 0L945.5 0C931 0 902 0 872.8 0C843.7 0 814.3 0 785.2 0C756 0 727 0 698 0C669 0 640 0 611 0C582 0 553 0 523.8 0C494.7 0 465.3 0 436.2 0C407 0 378 0 349 0C320 0 291 0 262 0C233 0 204 0 174.8 0C145.7 0 116.3 0 87.2 0C58 0 29 0 14.5 0L0 0Z" fill="#996aff"></path><path d="M0 21L14.5 20.5C29 20 58 19 87.2 18.2C116.3 17.3 145.7 16.7 174.8 17.2C204 17.7 233 19.3 262 20.2C291 21 320 21 349 18.2C378 15.3 407 9.7 436.2 7C465.3 4.3 494.7 4.7 523.8 6.3C553 8 582 11 611 13C640 15 669 16 698 17.3C727 18.7 756 20.3 785.2 19.2C814.3 18 843.7 14 872.8 14.3C902 14.7 931 19.3 945.5 21.7L960 24L960 0L945.5 0C931 0 902 0 872.8 0C843.7 0 814.3 0 785.2 0C756 0 727 0 698 0C669 0 640 0 611 0C582 0 553 0 523.8 0C494.7 0 465.3 0 436.2 0C407 0 378 0 349 0C320 0 291 0 262 0C233 0 204 0 174.8 0C145.7 0 116.3 0 87.2 0C58 0 29 0 14.5 0L0 0Z" fill="#905eff"></path></svg>