<svg id="visual" viewBox="0 0 900 300" width="900" height="300" xmlns="http://www.w3.org/2000/svg" xmlns:xlink="http://www.w3.org/1999/xlink" version="1.1"><g stroke-width="1" stroke-linejoin="bevel"><path d="M435 204L464 300L467 223Z" fill="#9a4bff" stroke="#9a4bff"></path><path d="M435 204L364 300L464 300Z" fill="#b088ff" stroke="#b088ff"></path><path d="M271 160L315 300L364 300Z" fill="#9a4bff" stroke="#9a4bff"></path><path d="M532 121L379 99L435 204Z" fill="#9c53ff" stroke="#9c53ff"></path><path d="M435 204L271 160L364 300Z" fill="#a162ff" stroke="#a162ff"></path><path d="M639 180L532 121L467 223Z" fill="#a875ff" stroke="#a875ff"></path><path d="M467 223L532 121L435 204Z" fill="#ab7cff" stroke="#ab7cff"></path><path d="M379 99L271 160L435 204Z" fill="#a368ff" stroke="#a368ff"></path><path d="M464 300L624 300L467 223Z" fill="#a875ff" stroke="#a875ff"></path><path d="M379 99L281 99L271 160Z" fill="#9c53ff" stroke="#9c53ff"></path><path d="M624 300L639 180L467 223Z" fill="#a368ff" stroke="#a368ff"></path><path d="M183 208L196 300L315 300Z" fill="#a875ff" stroke="#a875ff"></path><path d="M183 208L315 300L271 160Z" fill="#ab7cff" stroke="#ab7cff"></path><path d="M212 61L183 208L271 160Z" fill="#b38eff" stroke="#b38eff"></path><path d="M639 180L617 88L532 121Z" fill="#9a4bff" stroke="#9a4bff"></path><path d="M507 0L396 0L379 99Z" fill="#ae82ff" stroke="#ae82ff"></path><path d="M379 99L283 0L281 99Z" fill="#a875ff" stroke="#a875ff"></path><path d="M507 0L379 99L532 121Z" fill="#ab7cff" stroke="#ab7cff"></path><path d="M617 88L507 0L532 121Z" fill="#a66fff" stroke="#a66fff"></path><path d="M283 0L212 61L281 99Z" fill="#a162ff" stroke="#a162ff"></path><path d="M281 99L212 61L271 160Z" fill="#9f5aff" stroke="#9f5aff"></path><path d="M624 300L712 300L639 180Z" fill="#9c53ff" stroke="#9c53ff"></path><path d="M639 180L733 107L617 88Z" fill="#a875ff" stroke="#a875ff"></path><path d="M396 0L283 0L379 99Z" fill="#9f5aff" stroke="#9f5aff"></path><path d="M106 134L130 191L183 208Z" fill="#a368ff" stroke="#a368ff"></path><path d="M183 208L82 300L196 300Z" fill="#a162ff" stroke="#a162ff"></path><path d="M283 0L228 0L212 61Z" fill="#9f5aff" stroke="#9f5aff"></path><path d="M212 61L106 134L183 208Z" fill="#b088ff" stroke="#b088ff"></path><path d="M712 300L736 167L639 180Z" fill="#9c53ff" stroke="#9c53ff"></path><path d="M617 88L632 0L507 0Z" fill="#9a4bff" stroke="#9a4bff"></path><path d="M733 107L632 0L617 88Z" fill="#a66fff" stroke="#a66fff"></path><path d="M103 0L106 134L212 61Z" fill="#9f5aff" stroke="#9f5aff"></path><path d="M130 191L82 300L183 208Z" fill="#9f5aff" stroke="#9f5aff"></path><path d="M0 236L82 300L130 191Z" fill="#b088ff" stroke="#b088ff"></path><path d="M736 167L733 107L639 180Z" fill="#a66fff" stroke="#a66fff"></path><path d="M712 300L833 206L736 167Z" fill="#9f5aff" stroke="#9f5aff"></path><path d="M736 167L802 88L733 107Z" fill="#ae82ff" stroke="#ae82ff"></path><path d="M802 88L735 0L733 107Z" fill="#a875ff" stroke="#a875ff"></path><path d="M733 107L735 0L632 0Z" fill="#9a4bff" stroke="#9a4bff"></path><path d="M228 0L103 0L212 61Z" fill="#a162ff" stroke="#a162ff"></path><path d="M106 134L0 236L130 191Z" fill="#9f5aff" stroke="#9f5aff"></path><path d="M814 300L833 206L712 300Z" fill="#a875ff" stroke="#a875ff"></path><path d="M833 206L802 88L736 167Z" fill="#b38eff" stroke="#b38eff"></path><path d="M0 117L0 236L106 134Z" fill="#9a4bff" stroke="#9a4bff"></path><path d="M0 236L0 300L82 300Z" fill="#9a4bff" stroke="#9a4bff"></path><path d="M103 0L0 117L106 134Z" fill="#a162ff" stroke="#a162ff"></path><path d="M900 0L821 0L802 88Z" fill="#a368ff" stroke="#a368ff"></path><path d="M802 88L821 0L735 0Z" fill="#9a4bff" stroke="#9a4bff"></path><path d="M814 300L900 300L833 206Z" fill="#b38eff" stroke="#b38eff"></path><path d="M833 206L900 130L802 88Z" fill="#b38eff" stroke="#b38eff"></path><path d="M900 300L900 191L833 206Z" fill="#a66fff" stroke="#a66fff"></path><path d="M900 191L900 130L833 206Z" fill="#a162ff" stroke="#a162ff"></path><path d="M103 0L0 0L0 117Z" fill="#b088ff" stroke="#b088ff"></path><path d="M900 130L900 0L802 88Z" fill="#ae82ff" stroke="#ae82ff"></path></g></svg>